<svg width="576" height="724" viewBox="0 0 576 724" fill="none" xmlns="http://www.w3.org/2000/svg">
<path fill-rule="evenodd" clip-rule="evenodd" d="M345 3.32298C308.873 17.261 281.753 35.854 265.011 58.16C248.834 79.713 245.987 106.596 256.17 141.641C259.144 151.875 260.945 151.684 264.573 140.75C271.595 119.589 280.985 101.148 293.978 83C300.632 73.706 315.957 56.071 314.822 59.013C314.507 59.831 310.572 66.575 306.077 74C291.084 98.768 281.071 120.18 272.144 146.563C263.234 172.897 259.754 190.281 257.818 218.127L256.645 235.002L254.04 230.251C250.577 223.933 239.475 207.205 232.966 198.5C224.451 187.112 211.537 172.559 194.585 155.248C185.832 146.309 178.893 138.774 179.164 138.503C179.814 137.853 192.702 146.743 201.392 153.835C207.416 158.751 216.749 168.318 230.813 183.994C233.031 186.466 235.192 188.141 235.616 187.718C237.133 186.2 236.046 164.499 234.064 156.748C225.619 123.73 194.773 101.276 148 94.098C134.295 91.995 117.988 90.936 115.966 92.018C113.478 93.35 113.488 95.914 116.027 108C121.475 133.934 132.605 155.596 148.423 171.056C163.819 186.103 176.446 193.227 199.5 199.872C213.408 203.882 213.534 203.944 218.683 209.429C237.752 229.74 254.599 265.073 257.005 289.801C257.541 295.315 257.96 356.746 257.974 432.16L258 564.82L254.122 569.66C251.988 572.322 244.803 580.214 238.154 587.197C231.472 594.215 225.761 601.103 225.386 602.596C225.013 604.082 224.99 614.119 225.333 624.899L225.958 644.5L221.256 647.5C200.283 660.882 208.47 693.743 233.274 695.734C241.085 696.361 246.636 694.22 253.424 687.963C260.604 681.345 262.861 670.819 259.326 660.444C257.479 655.023 249.571 646.432 245.483 645.406C243.105 644.81 243.092 644.728 242.797 628.918C242.634 620.18 242.776 611.697 243.113 610.067C243.529 608.057 248.451 602.186 258.418 591.813C269.646 580.127 273.863 574.993 276.305 570.035L279.5 563.546L280.062 538.023C280.371 523.985 280.715 471.889 280.827 422.253C280.939 372.617 281.287 329.192 281.601 325.753C283.686 302.904 292.676 278.576 306.884 257.335C316.506 242.95 317.176 242.406 326.337 241.547C360.045 238.389 382.742 224.507 402.338 195.064C411.337 181.544 420.809 157.306 421.314 146.509L421.5 142.518L414.5 141.722C405.431 140.69 382.722 141.722 372.505 143.63C357.862 146.364 345.165 150.917 336.184 156.654C312.531 171.764 299.927 194.67 300.915 220.75C301.05 224.308 303.346 223.404 307.903 218C316.47 207.84 340.268 189.86 354.75 182.606C358.738 180.609 362 179.167 362 179.401C362 179.636 358.288 182.892 353.75 186.638C325.204 210.202 307.517 227.974 295.274 245.395C288.267 255.365 280.471 269.212 276.916 278C275.632 281.174 275.473 279.075 275.209 255.5C274.796 218.515 277.404 195.038 284.569 171.262C289.796 153.916 291.298 151.781 306.495 140.103C332.768 119.913 345.285 103.357 353.825 77.5C359.679 59.774 360.421 53.956 360.463 25.5L360.5 0.499978L357 0.271978C354.951 0.137978 349.977 1.40298 345 3.32298ZM80.253 172.516C77.994 174.449 72.583 180.187 68.229 185.266C31.117 228.558 8.361 280.108 1.911 335.5C0.274 349.559 0.24 383.263 1.848 397.5C6.242 436.391 19.249 475.872 38.332 508.243C58.862 543.067 91.711 577.522 126.5 600.722C137.488 608.05 154.59 616.957 162.581 619.514C174.433 623.306 185.144 621.108 193.332 613.201C197.981 608.712 199.066 606.725 202.337 596.709L204.882 588.918L226.191 566.89C237.911 554.775 248.042 543.656 248.705 542.181C250.248 538.746 250.485 486.463 248.976 482.315C248.411 480.763 235.292 467.046 219.726 451.732C192.757 425.201 191.589 423.898 193.5 422.463C202.267 415.883 206.004 408.947 205.99 399.283C205.96 378.157 185.367 364.914 166.457 373.86C156.251 378.689 150.697 387.478 150.571 399C150.456 409.475 155.244 418.422 163.453 423.07C166.747 424.936 179.498 436.966 200.171 457.714L231.842 489.5L231.961 511.703L232.079 533.907L228.297 538.203C224.53 542.482 201.711 566.23 192.838 575.105C188.229 579.715 186.95 582.541 183.983 594.677C182.754 599.705 178.13 604 173.946 604C167.319 604 150.238 595.837 133.5 584.672C82.177 550.438 42.133 497.055 26.102 441.5C18.616 415.558 15.64 394.22 15.642 366.5C15.644 343.628 16.934 330.635 21.143 311.117C30.735 266.635 56.685 217.378 87.665 184.847C91.149 181.188 94 177.311 94 176.232C94 175.153 93.067 173.084 91.927 171.635C89.002 167.916 85.3 168.195 80.253 172.516ZM457.5 198.359C455.44 201.504 456.271 203.439 462.498 210C478.133 226.472 489.986 243.741 500.589 265.5C516.229 297.593 523.971 330.182 523.992 364.006C524.013 398.63 516.102 432.215 500.68 462.976C482.875 498.489 466.595 517.888 426.136 551.805C423.118 554.336 421 556.931 421 558.101C421 560.888 425.418 565 428.412 565C431.769 565 448.679 552.178 461.335 540.036C517.155 486.483 544.263 412.579 535.516 337.799C533.614 321.54 530.793 308.607 525.98 294.086C514.117 258.289 493.798 225.091 469.5 201.806C462.904 195.486 459.941 194.634 457.5 198.359ZM111.703 215.25C81.167 245.477 58.546 293.294 52.924 339.5C51.351 352.429 51.323 382.841 52.872 395C59.681 448.426 83.498 495.696 122.104 532.404C135.949 545.568 143.57 551.333 147.128 551.333C151.237 551.333 154.002 548.418 153.992 544.095C153.985 540.827 153.339 540 146.896 535C136.992 527.316 117.662 507.087 108.496 494.815C85.654 464.233 71.886 429.834 67.508 392.402C60.24 330.268 80.343 269.23 123.698 221.793C128.496 216.543 128.953 214.4 125.961 211.189C122.293 207.251 118.77 208.255 111.703 215.25ZM530.709 229.624C529.024 231.309 530.411 235.502 536.818 248.097C563.307 300.166 571.266 364.266 558.393 421.849C553.032 445.828 543.955 469.831 531.677 492.5C511.809 529.182 480.193 563.477 444.854 586.68C434.13 593.721 413.024 604.248 405.837 606.141C396.6 608.573 395.86 608.044 363.834 576.15L335.066 547.5L334.783 529.5C334.627 519.6 334.633 510.568 334.796 509.429C334.959 508.29 342.26 500.198 351.02 491.448L366.948 475.539L385.724 475.852C397.189 476.043 405.56 475.757 407.222 475.118C408.718 474.542 418.393 465.798 428.722 455.686L447.5 437.302L451 438.761C455.359 440.579 467.194 440.002 471.5 437.762C476.642 435.086 482.887 427.918 485.003 422.262C487.432 415.77 487.526 410.858 485.349 404.119C480.249 388.327 461.402 380.594 447.176 388.456C439.101 392.919 434.633 399.208 432.908 408.539C432.08 413.021 432.203 415.18 433.551 419.793L435.218 425.5L418.859 441.31C409.862 450.006 401.458 457.543 400.185 458.06C398.912 458.577 394.074 459 389.435 459H381V434.745V410.489L385.146 405.995C387.426 403.523 397.08 393.597 406.599 383.938C416.118 374.278 424.378 365.137 424.953 363.623C425.601 361.919 426 348.965 426 329.636V298.402L429.25 297.224C438.374 293.916 445.184 283.58 445.134 273.115C445.088 263.643 443.313 259.24 436.958 252.839C431.264 247.104 424.607 244 418 244C408.891 244 398.204 250.59 393.479 259.121C390.863 263.844 390.502 265.476 390.517 272.5C390.531 278.834 391 281.378 392.77 284.715C395.428 289.728 402.578 296.856 405.746 297.651C407.972 298.21 408.002 298.438 408.182 316.358C408.282 326.336 408.296 339.882 408.214 346.459L408.064 358.418L387.13 379.459C375.617 391.032 365.477 401.94 364.598 403.7C363.267 406.365 363 410.913 363 430.883V454.866L341.9 475.683C330.294 487.132 319.832 498.3 318.65 500.5C316.594 504.326 316.513 505.541 316.808 528.411C317.039 546.374 317.461 552.991 318.505 555.01C320.19 558.268 377.516 614.7 383.005 618.503C391.09 624.107 401.527 625.506 412.068 622.399C422.664 619.277 448.077 605.402 461 595.684C476.203 584.252 499.451 562.136 511.65 547.5C537.034 517.047 557.353 477.009 567.542 437.369C572.73 417.183 575.087 399.434 575.715 375.81C576.982 328.129 568.778 289.703 549.243 251.822C539.835 233.578 533.883 226.45 530.709 229.624ZM423.795 263.62C428.762 266.834 429.387 274.416 425.082 279.234C422.577 282.038 421.504 282.5 417.5 282.5C413.496 282.5 412.423 282.038 409.918 279.234C401.275 269.562 412.849 256.539 423.795 263.62ZM340 312.873C326.756 317.245 319.575 326.994 319.651 340.5C319.682 346.002 320.245 348.589 322.281 352.59C324.906 357.748 330.288 363.263 334.623 365.238C336.987 366.315 337 366.413 337 382.941V399.561L313.48 422.935C300.545 435.79 289.728 447.251 289.443 448.404C288.706 451.382 289.748 567.896 290.704 589.5C291.142 599.4 291.95 608.234 292.5 609.13C293.05 610.027 299.529 617.064 306.897 624.768C314.266 632.472 320.621 639.388 321.02 640.137C322.35 642.637 322.91 671.024 321.648 671.993C310.407 680.626 305.76 688.057 305.719 697.468C305.687 704.716 307.512 709.343 312.653 715.05C324.736 728.463 345.739 725.583 354.006 709.379C356.009 705.453 356.495 703.02 356.497 696.922C356.5 690.226 356.147 688.772 353.468 684.44C351.801 681.743 348.201 677.848 345.468 675.786L340.5 672.035L339.496 653.238C338.324 631.289 340.063 634.896 321.476 615.859C311.815 605.964 309.019 602.484 308.616 599.857C308.333 598.011 307.833 564.513 307.506 525.418L306.911 454.337L330.956 430.373L355 406.41V386.697V366.984L359.008 365.38C361.212 364.498 364.996 361.574 367.416 358.883C374.878 350.582 376.809 340.906 373.02 330.788C368.942 319.895 360.205 313.293 348.805 312.491C345.337 312.247 341.375 312.419 340 312.873ZM353.985 331.929C355.406 332.938 356.853 335.31 357.363 337.467C359.83 347.896 347.085 355.044 339.82 347.307C338.016 345.385 337.516 343.748 337.573 339.943C337.656 334.329 339.653 331.453 344.419 330.085C348.067 329.038 350.602 329.527 353.985 331.929ZM185.046 390.75C194.28 399.002 185.109 413.415 173.666 408.634C165.628 405.275 165.218 393.639 173 389.752C177.977 387.265 181.47 387.555 185.046 390.75ZM464.855 403.425C470.66 406.427 471.845 415.309 467.077 420.077C461.983 425.171 453.952 423.675 450.494 416.989C448.606 413.337 448.616 411.611 450.553 407.53C453.044 402.28 459.215 400.508 464.855 403.425ZM242.25 663.013C246.846 668.057 245.484 675.593 239.46 678.452C234.817 680.655 232.463 680.386 228.954 677.25C224.734 673.479 223.912 667.638 227.043 663.667C231.391 658.151 237.577 657.885 242.25 663.013ZM335.452 688.415C339.375 690.054 341 692.578 341 697.03C341 702.672 336.339 708 331.403 708C328.887 708 324.127 705.106 322.914 702.839C321.186 699.61 321.604 693.097 323.689 690.778C327.099 686.986 330.429 686.317 335.452 688.415Z" fill="url(#paint0_linear_2943_704)"/>
<defs>
<linearGradient id="paint0_linear_2943_704" x1="288.252" y1="0.262268" x2="288.252" y2="723.551" gradientUnits="userSpaceOnUse">
<stop stop-color="#58EE85"/>
<stop offset="1" stop-color="#2D0DBC"/>
</linearGradient>
</defs>
</svg>
